<mxfile host="app.diagrams.net" agent="Mozilla/5.0 (X11; Linux x86_64) AppleWebKit/537.36 (KHTML, like Gecko) Chrome/108.0.0.0 Safari/537.36" version="24.7.17">
  <diagram name="Page-1" id="hO1WShz67wuneFaXiRuE">
    <mxGraphModel dx="1362" dy="714" grid="1" gridSize="10" guides="1" tooltips="1" connect="1" arrows="1" fold="1" page="1" pageScale="1" pageWidth="850" pageHeight="1100" math="0" shadow="0">
      <root>
        <mxCell id="0" />
        <mxCell id="1" parent="0" />
        <mxCell id="_PVpw8vH941u0i0-GER6-12" value="" style="shape=ext;double=1;rounded=1;whiteSpace=wrap;html=1;" vertex="1" parent="1">
          <mxGeometry x="100" y="200" width="198.75" height="80" as="geometry" />
        </mxCell>
        <mxCell id="_PVpw8vH941u0i0-GER6-9" value="" style="shape=ext;double=1;rounded=1;whiteSpace=wrap;html=1;" vertex="1" parent="1">
          <mxGeometry x="540" y="200" width="198.75" height="80" as="geometry" />
        </mxCell>
        <mxCell id="_PVpw8vH941u0i0-GER6-1" value="" style="aspect=fixed;sketch=0;html=1;dashed=0;whitespace=wrap;verticalLabelPosition=bottom;verticalAlign=top;fillColor=#2875E2;strokeColor=#ffffff;points=[[0.005,0.63,0],[0.1,0.2,0],[0.9,0.2,0],[0.5,0,0],[0.995,0.63,0],[0.72,0.99,0],[0.5,1,0],[0.28,0.99,0]];shape=mxgraph.kubernetes.icon2;prIcon=control_plane" vertex="1" parent="1">
          <mxGeometry x="110" y="204" width="62.5" height="60" as="geometry" />
        </mxCell>
        <mxCell id="_PVpw8vH941u0i0-GER6-2" value="" style="aspect=fixed;sketch=0;html=1;dashed=0;whitespace=wrap;verticalLabelPosition=bottom;verticalAlign=top;fillColor=#2875E2;strokeColor=#ffffff;points=[[0.005,0.63,0],[0.1,0.2,0],[0.9,0.2,0],[0.5,0,0],[0.995,0.63,0],[0.72,0.99,0],[0.5,1,0],[0.28,0.99,0]];shape=mxgraph.kubernetes.icon2;kubernetesLabel=1;prIcon=node" vertex="1" parent="1">
          <mxGeometry x="220" y="210" width="50" height="48" as="geometry" />
        </mxCell>
        <mxCell id="_PVpw8vH941u0i0-GER6-3" value="" style="aspect=fixed;sketch=0;html=1;dashed=0;whitespace=wrap;verticalLabelPosition=bottom;verticalAlign=top;fillColor=#2875E2;strokeColor=#ffffff;points=[[0.005,0.63,0],[0.1,0.2,0],[0.9,0.2,0],[0.5,0,0],[0.995,0.63,0],[0.72,0.99,0],[0.5,1,0],[0.28,0.99,0]];shape=mxgraph.kubernetes.icon2;prIcon=control_plane" vertex="1" parent="1">
          <mxGeometry x="560" y="210" width="62.5" height="60" as="geometry" />
        </mxCell>
        <mxCell id="_PVpw8vH941u0i0-GER6-4" value="" style="aspect=fixed;sketch=0;html=1;dashed=0;whitespace=wrap;verticalLabelPosition=bottom;verticalAlign=top;fillColor=#2875E2;strokeColor=#ffffff;points=[[0.005,0.63,0],[0.1,0.2,0],[0.9,0.2,0],[0.5,0,0],[0.995,0.63,0],[0.72,0.99,0],[0.5,1,0],[0.28,0.99,0]];shape=mxgraph.kubernetes.icon2;kubernetesLabel=1;prIcon=node" vertex="1" parent="1">
          <mxGeometry x="670" y="216" width="50" height="48" as="geometry" />
        </mxCell>
        <mxCell id="_PVpw8vH941u0i0-GER6-6" value="" style="image;sketch=0;aspect=fixed;html=1;points=[];align=center;fontSize=12;image=img/lib/mscae/Cloud_Services_Classic.svg;" vertex="1" parent="1">
          <mxGeometry x="365" y="90" width="119.05" height="100" as="geometry" />
        </mxCell>
        <mxCell id="_PVpw8vH941u0i0-GER6-13" value="" style="edgeStyle=elbowEdgeStyle;elbow=vertical;endArrow=classic;html=1;curved=0;rounded=0;endSize=8;startSize=8;entryX=0.386;entryY=1;entryDx=0;entryDy=0;entryPerimeter=0;" edge="1" parent="1">
          <mxGeometry width="50" height="50" relative="1" as="geometry">
            <mxPoint x="298.75" y="264" as="sourcePoint" />
            <mxPoint x="409.7032999999999" y="188" as="targetPoint" />
          </mxGeometry>
        </mxCell>
        <mxCell id="_PVpw8vH941u0i0-GER6-14" value="" style="edgeStyle=elbowEdgeStyle;elbow=vertical;endArrow=classic;html=1;curved=0;rounded=0;endSize=8;startSize=8;entryX=0.554;entryY=1;entryDx=0;entryDy=0;entryPerimeter=0;" edge="1" parent="1" target="_PVpw8vH941u0i0-GER6-6">
          <mxGeometry width="50" height="50" relative="1" as="geometry">
            <mxPoint x="540" y="256" as="sourcePoint" />
            <mxPoint x="651" y="180" as="targetPoint" />
          </mxGeometry>
        </mxCell>
        <mxCell id="_PVpw8vH941u0i0-GER6-16" value="Internet" style="text;strokeColor=none;fillColor=none;html=1;fontSize=24;fontStyle=1;verticalAlign=middle;align=center;" vertex="1" parent="1">
          <mxGeometry x="375" y="70" width="100" height="40" as="geometry" />
        </mxCell>
        <mxCell id="_PVpw8vH941u0i0-GER6-17" value="Unitech" style="text;strokeColor=none;fillColor=none;html=1;fontSize=24;fontStyle=1;verticalAlign=middle;align=center;" vertex="1" parent="1">
          <mxGeometry x="150" y="150" width="100" height="40" as="geometry" />
        </mxCell>
        <mxCell id="_PVpw8vH941u0i0-GER6-18" value="Sydney" style="text;strokeColor=none;fillColor=none;html=1;fontSize=24;fontStyle=1;verticalAlign=middle;align=center;" vertex="1" parent="1">
          <mxGeometry x="600" y="150" width="100" height="40" as="geometry" />
        </mxCell>
        <mxCell id="_PVpw8vH941u0i0-GER6-23" value="" style="endArrow=classic;startArrow=classic;html=1;rounded=0;exitX=0.333;exitY=0.017;exitDx=0;exitDy=0;exitPerimeter=0;" edge="1" parent="1">
          <mxGeometry width="50" height="50" relative="1" as="geometry">
            <mxPoint x="139.50000000000003" y="330" as="sourcePoint" />
            <mxPoint x="139.52" y="278.98" as="targetPoint" />
            <Array as="points">
              <mxPoint x="139.52" y="328.98" />
            </Array>
          </mxGeometry>
        </mxCell>
        <mxCell id="_PVpw8vH941u0i0-GER6-26" value="" style="endArrow=classic;startArrow=classic;html=1;rounded=0;exitX=0.333;exitY=0.017;exitDx=0;exitDy=0;exitPerimeter=0;" edge="1" parent="1">
          <mxGeometry width="50" height="50" relative="1" as="geometry">
            <mxPoint x="244.50000000000003" y="330" as="sourcePoint" />
            <mxPoint x="244.52" y="278.98" as="targetPoint" />
            <Array as="points">
              <mxPoint x="244.52" y="328.98" />
            </Array>
          </mxGeometry>
        </mxCell>
        <mxCell id="_PVpw8vH941u0i0-GER6-32" value="" style="endArrow=classic;startArrow=classic;html=1;rounded=0;exitX=0.333;exitY=0.017;exitDx=0;exitDy=0;exitPerimeter=0;" edge="1" parent="1">
          <mxGeometry width="50" height="50" relative="1" as="geometry">
            <mxPoint x="589.5" y="330" as="sourcePoint" />
            <mxPoint x="589.52" y="278.98" as="targetPoint" />
            <Array as="points">
              <mxPoint x="589.52" y="328.98" />
            </Array>
          </mxGeometry>
        </mxCell>
        <mxCell id="_PVpw8vH941u0i0-GER6-34" value="" style="endArrow=classic;startArrow=classic;html=1;rounded=0;exitX=0.333;exitY=0.017;exitDx=0;exitDy=0;exitPerimeter=0;" edge="1" parent="1">
          <mxGeometry width="50" height="50" relative="1" as="geometry">
            <mxPoint x="694.5" y="330" as="sourcePoint" />
            <mxPoint x="694.52" y="278.98" as="targetPoint" />
            <Array as="points">
              <mxPoint x="694.52" y="328.98" />
            </Array>
          </mxGeometry>
        </mxCell>
        <mxCell id="_PVpw8vH941u0i0-GER6-35" value="Storage" style="text;strokeColor=none;fillColor=none;html=1;fontSize=24;fontStyle=1;verticalAlign=middle;align=center;" vertex="1" parent="1">
          <mxGeometry x="140" y="400" width="100" height="40" as="geometry" />
        </mxCell>
        <mxCell id="_PVpw8vH941u0i0-GER6-36" value="Storage" style="text;strokeColor=none;fillColor=none;html=1;fontSize=24;fontStyle=1;verticalAlign=middle;align=center;" vertex="1" parent="1">
          <mxGeometry x="589.38" y="400" width="100" height="40" as="geometry" />
        </mxCell>
        <mxCell id="_PVpw8vH941u0i0-GER6-37" value="" style="image;sketch=0;aspect=fixed;html=1;points=[];align=center;fontSize=12;image=img/lib/mscae/Azure_Database_for_PostgreSQL_servers.svg;" vertex="1" parent="1">
          <mxGeometry x="116.25" y="330" width="50" height="65.79" as="geometry" />
        </mxCell>
        <mxCell id="_PVpw8vH941u0i0-GER6-38" value="" style="image;sketch=0;aspect=fixed;html=1;points=[];align=center;fontSize=12;image=img/lib/mscae/Data_Lake.svg;" vertex="1" parent="1">
          <mxGeometry x="220" y="330" width="45.6" height="60" as="geometry" />
        </mxCell>
        <mxCell id="_PVpw8vH941u0i0-GER6-39" value="" style="image;sketch=0;aspect=fixed;html=1;points=[];align=center;fontSize=12;image=img/lib/mscae/Azure_Database_for_PostgreSQL_servers.svg;" vertex="1" parent="1">
          <mxGeometry x="563.61" y="330" width="50" height="65.79" as="geometry" />
        </mxCell>
        <mxCell id="_PVpw8vH941u0i0-GER6-40" value="" style="image;sketch=0;aspect=fixed;html=1;points=[];align=center;fontSize=12;image=img/lib/mscae/Data_Lake.svg;" vertex="1" parent="1">
          <mxGeometry x="667.36" y="330" width="47.8" height="62.89" as="geometry" />
        </mxCell>
      </root>
    </mxGraphModel>
  </diagram>
</mxfile>
